<svg xmlns="http://www.w3.org/2000/svg" width="1800" height="850" viewBox="0 0 1800 850" role="img" aria-labelledby="title desc">
<title id="title">LLM Atlas 大模型技术全生命周期知识地图</title>
<desc id="desc">从历史基础，经过数据、训练、后训练、评测、推理、Agent 与生产系统，到当前阶段和未来前沿的知识树。</desc>
<defs>
  <linearGradient id="bg" x1="0" y1="0" x2="1" y2="1"><stop offset="0" stop-color="#f8fafc"/><stop offset="1" stop-color="#eef2ff"/></linearGradient>
  <filter id="shadow" x="-10%" y="-20%" width="120%" height="150%"><feDropShadow dx="0" dy="5" stdDeviation="6" flood-color="#0f172a" flood-opacity=".10"/></filter>
  <marker id="arrow" markerWidth="10" markerHeight="10" refX="8" refY="3" orient="auto"><path d="M0,0 L0,6 L9,3 z" fill="#475569"/></marker>
  <style>
    text{font-family:Inter,"Noto Sans SC","PingFang SC",system-ui,sans-serif}.node{filter:url(#shadow)}.label{font-size:17px;font-weight:700}.sub{font-size:11px;opacity:.82}.edge text{font-size:11px;fill:#475569;paint-order:stroke;stroke:#f8fafc;stroke-width:5px;stroke-linejoin:round}.phase{font-size:15px;font-weight:700;letter-spacing:.08em}.hint{font-size:13px;fill:#64748b}.node:hover rect:first-child{stroke-width:4}
  </style>
</defs>
<rect width="1800" height="850" rx="24" fill="url(#bg)"/>
<text x="60" y="52" font-size="30" font-weight="800" fill="#0f172a">LLM Atlas · 大模型技术全生命周期</text>
<text x="60" y="80" class="hint">从哪里来 · 当下处于什么阶段 · 未来要去往何处　｜　点击节点进入知识页</text>
<text x="40" y="125" class="phase" fill="#0369a1">来源与基础</text>
<text x="40" y="345" class="phase" fill="#1d4ed8">训练、推理与行动</text>
<text x="40" y="565" class="phase" fill="#7c3aed">生产、现状与未来</text>
<g class="edge"><path d="M 230 221 L 280 221" fill="none" stroke="#2563eb" stroke-width="2.2" marker-end="url(#arrow)"/><text x="255" y="213" text-anchor="middle">从哪里来</text></g>
<g class="edge"><path d="M 470 221 L 520 221" fill="none" stroke="#2563eb" stroke-width="2.2" marker-end="url(#arrow)"/><text x="495" y="213" text-anchor="middle">理论抽象</text></g>
<g class="edge"><path d="M 710 221 L 760 221" fill="none" stroke="#2563eb" stroke-width="2.2" marker-end="url(#arrow)"/><text x="735" y="213" text-anchor="middle">学习材料</text></g>
<g class="edge"><path d="M 950 221 L 1000 221" fill="none" stroke="#2563eb" stroke-width="2.2" marker-end="url(#arrow)"/><text x="975" y="213" text-anchor="middle">编码</text></g>
<g class="edge"><path d="M 1190 221 L 1240 221" fill="none" stroke="#2563eb" stroke-width="2.2" marker-end="url(#arrow)"/><text x="1215" y="213" text-anchor="middle">计算结构</text></g>
<g class="edge"><path d="M 1430 221 L 1480 221" fill="none" stroke="#2563eb" stroke-width="2.2" marker-end="url(#arrow)"/><text x="1455" y="213" text-anchor="middle">规模学习</text></g>
<g class="edge"><path d="M 1575 257 L 1575 405" fill="none" stroke="#2563eb" stroke-width="2.2" marker-end="url(#arrow)"/><text x="1575" y="331" text-anchor="middle">塑造行为</text></g>
<g class="edge"><path d="M 1480 441 L 1430 441" fill="none" stroke="#2563eb" stroke-width="2.2" marker-end="url(#arrow)"/><text x="1455" y="433" text-anchor="middle">思考策略</text></g>
<g class="edge"><path d="M 1240 441 L 1190 441" fill="none" stroke="#2563eb" stroke-width="2.2" marker-end="url(#arrow)"/><text x="1215" y="433" text-anchor="middle">验证边界</text></g>
<g class="edge"><path d="M 1000 441 L 950 441" fill="none" stroke="#2563eb" stroke-width="2.2" marker-end="url(#arrow)"/><text x="975" y="433" text-anchor="middle">发布门</text></g>
<g class="edge"><path d="M 760 441 L 710 441" fill="none" stroke="#2563eb" stroke-width="2.2" marker-end="url(#arrow)"/><text x="735" y="433" text-anchor="middle">动态知识</text></g>
<g class="edge"><path d="M 520 441 L 470 441" fill="none" stroke="#2563eb" stroke-width="2.2" marker-end="url(#arrow)"/><text x="495" y="433" text-anchor="middle">连接工具</text></g>
<g class="edge"><path d="M 280 441 L 230 441" fill="none" stroke="#2563eb" stroke-width="2.2" marker-end="url(#arrow)"/><text x="255" y="433" text-anchor="middle">感知行动</text></g>
<g class="edge"><path d="M 135 477 L 135 625" fill="none" stroke="#e11d48" stroke-width="2.2" marker-end="url(#arrow)"/><text x="135" y="551" text-anchor="middle">约束风险</text></g>
<g class="edge"><path d="M 230 661 L 280 661" fill="none" stroke="#e11d48" stroke-width="2.2" marker-end="url(#arrow)"/><text x="255" y="653" text-anchor="middle">受控部署</text></g>
<g class="edge"><path d="M 470 661 L 520 661" fill="none" stroke="#2563eb" stroke-width="2.2" marker-end="url(#arrow)"/><text x="495" y="653" text-anchor="middle">资源承载</text></g>
<g class="edge"><path d="M 710 661 L 760 661" fill="none" stroke="#2563eb" stroke-width="2.2" marker-end="url(#arrow)"/><text x="735" y="653" text-anchor="middle">规模供给</text></g>
<g class="edge"><path d="M 950 661 L 1000 661" fill="none" stroke="#2563eb" stroke-width="2.2" marker-end="url(#arrow)"/><text x="975" y="653" text-anchor="middle">当下阶段</text></g>
<g class="edge"><path d="M 1190 661 L 1240 661" fill="none" stroke="#7c3aed" stroke-width="2.2" stroke-dasharray="8 7" marker-end="url(#arrow)"/><text x="1215" y="653" text-anchor="middle">证据推演</text></g>
<g class="edge"><path d="M 1430 661 L 1480 661" fill="none" stroke="#7c3aed" stroke-width="2.2" stroke-dasharray="8 7" marker-end="url(#arrow)"/><text x="1455" y="653" text-anchor="middle">持续更新</text></g>
<a href="./knowledge/00-start-here/README.md" target="_top"><g class="node"><rect x="40" y="185" width="190" height="72" rx="14" fill="#e0f2fe" stroke="#38bdf8" stroke-width="2"/><rect x="40" y="185" width="6" height="72" rx="3" fill="#38bdf8"/><text class="label" x="58" y="214" fill="#0369a1">00 从这里开始</text><text class="sub" x="58" y="237" fill="#0369a1">生命周期 · 分类 · 学习路线</text></g></a>
<a href="./knowledge/01-origins/README.md" target="_top"><g class="node"><rect x="280" y="185" width="190" height="72" rx="14" fill="#e0f2fe" stroke="#38bdf8" stroke-width="2"/><rect x="280" y="185" width="6" height="72" rx="3" fill="#38bdf8"/><text class="label" x="298" y="214" fill="#0369a1">01 历史源流</text><text class="sub" x="298" y="237" fill="#0369a1">符号 · 统计 · Transformer · 规模</text></g></a>
<a href="./knowledge/02-foundations/README.md" target="_top"><g class="node"><rect x="520" y="185" width="190" height="72" rx="14" fill="#ede9fe" stroke="#8b5cf6" stroke-width="2"/><rect x="520" y="185" width="6" height="72" rx="3" fill="#8b5cf6"/><text class="label" x="538" y="214" fill="#6d28d9">02 数学与学习基础</text><text class="sub" x="538" y="237" fill="#6d28d9">概率 · 信息 · 优化 · 强化学习</text></g></a>
<a href="./knowledge/03-data/README.md" target="_top"><g class="node"><rect x="760" y="185" width="190" height="72" rx="14" fill="#dcfce7" stroke="#34d399" stroke-width="2"/><rect x="760" y="185" width="6" height="72" rx="3" fill="#34d399"/><text class="label" x="778" y="214" fill="#047857">03 数据</text><text class="sub" x="778" y="237" fill="#047857">来源 · 质量 · 合成 · 治理</text></g></a>
<a href="./knowledge/04-tokenization-and-representation/README.md" target="_top"><g class="node"><rect x="1000" y="185" width="190" height="72" rx="14" fill="#dcfce7" stroke="#34d399" stroke-width="2"/><rect x="1000" y="185" width="6" height="72" rx="3" fill="#34d399"/><text class="label" x="1018" y="214" fill="#047857">04 Token 与表示</text><text class="sub" x="1018" y="237" fill="#047857">分词 · 嵌入 · 位置 · 上下文</text></g></a>
<a href="./knowledge/05-model-architectures/README.md" target="_top"><g class="node"><rect x="1240" y="185" width="190" height="72" rx="14" fill="#ede9fe" stroke="#8b5cf6" stroke-width="2"/><rect x="1240" y="185" width="6" height="72" rx="3" fill="#8b5cf6"/><text class="label" x="1258" y="214" fill="#6d28d9">05 模型架构</text><text class="sub" x="1258" y="237" fill="#6d28d9">Attention · MoE · 长上下文 · 混合</text></g></a>
<a href="./knowledge/06-pretraining/README.md" target="_top"><g class="node"><rect x="1480" y="185" width="190" height="72" rx="14" fill="#dbeafe" stroke="#60a5fa" stroke-width="2"/><rect x="1480" y="185" width="6" height="72" rx="3" fill="#60a5fa"/><text class="label" x="1498" y="214" fill="#1d4ed8">06 预训练</text><text class="sub" x="1498" y="237" fill="#1d4ed8">目标 · 扩展 · 分布式 · 稳定性</text></g></a>
<a href="./knowledge/07-post-training/README.md" target="_top"><g class="node"><rect x="1480" y="405" width="190" height="72" rx="14" fill="#dbeafe" stroke="#60a5fa" stroke-width="2"/><rect x="1480" y="405" width="6" height="72" rx="3" fill="#60a5fa"/><text class="label" x="1498" y="434" fill="#1d4ed8">07 后训练</text><text class="sub" x="1498" y="457" fill="#1d4ed8">SFT · 偏好 · RL · 蒸馏</text></g></a>
<a href="./knowledge/08-reasoning-and-test-time-compute/README.md" target="_top"><g class="node"><rect x="1240" y="405" width="190" height="72" rx="14" fill="#dbeafe" stroke="#60a5fa" stroke-width="2"/><rect x="1240" y="405" width="6" height="72" rx="3" fill="#60a5fa"/><text class="label" x="1258" y="434" fill="#1d4ed8">08 推理时计算</text><text class="sub" x="1258" y="457" fill="#1d4ed8">思维链 · 搜索 · 验证 · 校准</text></g></a>
<a href="./knowledge/09-evaluation/README.md" target="_top"><g class="node"><rect x="1000" y="405" width="190" height="72" rx="14" fill="#ffe4e6" stroke="#fb7185" stroke-width="2"/><rect x="1000" y="405" width="6" height="72" rx="3" fill="#fb7185"/><text class="label" x="1018" y="434" fill="#be123c">09 评测</text><text class="sub" x="1018" y="457" fill="#be123c">能力 · Agent · 安全 · EvalOps</text></g></a>
<a href="./knowledge/10-inference-and-efficiency/README.md" target="_top"><g class="node"><rect x="760" y="405" width="190" height="72" rx="14" fill="#dbeafe" stroke="#60a5fa" stroke-width="2"/><rect x="760" y="405" width="6" height="72" rx="3" fill="#60a5fa"/><text class="label" x="778" y="434" fill="#1d4ed8">10 推理与效率</text><text class="sub" x="778" y="457" fill="#1d4ed8">解码 · 缓存 · 量化 · 服务</text></g></a>
<a href="./knowledge/11-context-and-knowledge/README.md" target="_top"><g class="node"><rect x="520" y="405" width="190" height="72" rx="14" fill="#dcfce7" stroke="#34d399" stroke-width="2"/><rect x="520" y="405" width="6" height="72" rx="3" fill="#34d399"/><text class="label" x="538" y="434" fill="#047857">11 上下文与知识</text><text class="sub" x="538" y="457" fill="#047857">Prompt · RAG · 记忆 · 协议</text></g></a>
<a href="./knowledge/12-agents-and-tool-use/README.md" target="_top"><g class="node"><rect x="280" y="405" width="190" height="72" rx="14" fill="#fef3c7" stroke="#f59e0b" stroke-width="2"/><rect x="280" y="405" width="6" height="72" rx="3" fill="#f59e0b"/><text class="label" x="298" y="434" fill="#b45309">12 Agent 与工具</text><text class="sub" x="298" y="457" fill="#b45309">规划 · 执行 · 多 Agent · 长任务</text></g></a>
<a href="./knowledge/13-multimodal-and-generation/README.md" target="_top"><g class="node"><rect x="40" y="405" width="190" height="72" rx="14" fill="#fef3c7" stroke="#f59e0b" stroke-width="2"/><rect x="40" y="405" width="6" height="72" rx="3" fill="#f59e0b"/><text class="label" x="58" y="434" fill="#b45309">13 多模态与生成</text><text class="sub" x="58" y="457" fill="#b45309">视觉 · 语音 · 视频 · 具身</text></g></a>
<a href="./knowledge/14-safety-security-and-privacy/README.md" target="_top"><g class="node"><rect x="40" y="625" width="190" height="72" rx="14" fill="#ffe4e6" stroke="#fb7185" stroke-width="2"/><rect x="40" y="625" width="6" height="72" rx="3" fill="#fb7185"/><text class="label" x="58" y="654" fill="#be123c">14 安全与隐私</text><text class="sub" x="58" y="677" fill="#be123c">对齐 · 注入 · 控制 · 事件</text></g></a>
<a href="./knowledge/15-production-lifecycle/README.md" target="_top"><g class="node"><rect x="280" y="625" width="190" height="72" rx="14" fill="#dbeafe" stroke="#60a5fa" stroke-width="2"/><rect x="280" y="625" width="6" height="72" rx="3" fill="#60a5fa"/><text class="label" x="298" y="654" fill="#1d4ed8">15 生产生命周期</text><text class="sub" x="298" y="677" fill="#1d4ed8">部署 · 观测 · 路由 · LLMOps</text></g></a>
<a href="./knowledge/16-infrastructure-hardware-and-economics/README.md" target="_top"><g class="node"><rect x="520" y="625" width="190" height="72" rx="14" fill="#ede9fe" stroke="#8b5cf6" stroke-width="2"/><rect x="520" y="625" width="6" height="72" rx="3" fill="#8b5cf6"/><text class="label" x="538" y="654" fill="#6d28d9">16 基础设施与经济</text><text class="sub" x="538" y="677" fill="#6d28d9">芯片 · 集群 · 能源 · 成本</text></g></a>
<a href="./knowledge/17-ecosystem-and-applications/README.md" target="_top"><g class="node"><rect x="760" y="625" width="190" height="72" rx="14" fill="#fef3c7" stroke="#f59e0b" stroke-width="2"/><rect x="760" y="625" width="6" height="72" rx="3" fill="#f59e0b"/><text class="label" x="778" y="654" fill="#b45309">17 生态与应用</text><text class="sub" x="778" y="677" fill="#b45309">模型 · 工具 · 许可 · 监管</text></g></a>
<a href="./knowledge/18-state-of-the-field/README.md" target="_top"><g class="node"><rect x="1000" y="625" width="190" height="72" rx="14" fill="#e0f2fe" stroke="#38bdf8" stroke-width="2"/><rect x="1000" y="625" width="6" height="72" rx="3" fill="#38bdf8"/><text class="label" x="1018" y="654" fill="#0369a1">18 领域现状</text><text class="sub" x="1018" y="677" fill="#0369a1">2026-09 能力 · 采用 · 瓶颈</text></g></a>
<a href="./knowledge/19-future-frontiers/README.md" target="_top"><g class="node"><rect x="1240" y="625" width="190" height="72" rx="14" fill="#e0f2fe" stroke="#38bdf8" stroke-width="2"/><rect x="1240" y="625" width="6" height="72" rx="3" fill="#38bdf8"/><text class="label" x="1258" y="654" fill="#0369a1">19 未来前沿</text><text class="sub" x="1258" y="677" fill="#0369a1">持续学习 · 自主 · 世界模型</text></g></a>
<a href="./knowledge/20-reference/README.md" target="_top"><g class="node"><rect x="1480" y="625" width="190" height="72" rx="14" fill="#f1f5f9" stroke="#94a3b8" stroke-width="2"/><rect x="1480" y="625" width="6" height="72" rx="3" fill="#94a3b8"/><text class="label" x="1498" y="654" fill="#334155">20 参考手册</text><text class="sub" x="1498" y="677" fill="#334155">术语 · 公式 · 时间线 · 目录</text></g></a>
<g transform="translate(60 755)"><rect width="1680" height="60" rx="14" fill="#ffffff" opacity=".82"/><circle cx="28" cy="30" r="7" fill="#38bdf8"/><text x="44" y="35" class="hint">历史解释能力来源</text><circle cx="260" cy="30" r="7" fill="#60a5fa"/><text x="276" y="35" class="hint">生命周期解释系统如何形成</text><circle cx="610" cy="30" r="7" fill="#fb7185"/><text x="626" y="35" class="hint">安全贯穿每一阶段</text><circle cx="875" cy="30" r="7" fill="#8b5cf6"/><text x="891" y="35" class="hint">现状以日期冻结，未来按证据分级</text><text x="1390" y="35" class="hint">快照 2026-09-30</text></g>
</svg>